<?xml version="1.0" encoding="UTF-8"?>
<svg width="540px" height="125px" viewBox="0 0 540 125" version="1.1" xmlns="http://www.w3.org/2000/svg" xmlns:xlink="http://www.w3.org/1999/xlink">
    <title>Group 49</title>
    <defs>
        <rect id="path-1" x="0" y="0" width="540" height="124.033333"></rect>
    </defs>
    <g id="-" stroke="none" stroke-width="1" fill="none" fill-rule="evenodd">
        <g id="Group-49">
            <g id="isomer_pattern">
                <rect id="Rectangle" fill="#0D101A" x="0" y="0" width="540" height="122"></rect>
                <mask id="mask-2" fill="white">
                    <use xlink:href="#path-1"></use>
                </mask>
                <use id="Rectangle" fill="#0D101A" xlink:href="#path-1"></use>
                <g id="Group" mask="url(#mask-2)" opacity="0.202864147">
                    <g transform="translate(498.000000, 0.000000)" id="UI-Elements-/logoMark-Copy-6">
                        <g id="Group-101" transform="translate(8.823529, 6.458824)">
                            <path d="M67.3631346,0 L4.9898563,0 C2.23403802,0 0,2.14385558 0,4.78843813 L0,64.6439148 C0,67.2884495 2.23403802,69.4323529 4.9898563,69.4323529 L67.3631346,69.4323529 C70.1189777,69.4323529 72.3529412,67.2884495 72.3529412,64.6439148 L72.3529412,4.78843813 C72.3529412,2.14385558 70.1189777,0 67.3631346,0 Z" id="Path" stroke="#9902FF" stroke-width="6.02523"></path>
                            <path d="M58.2352941,54.4848382 L58.2352941,56.5147059 L47.6470588,56.5147059 L47.6470588,54.3925383 L51.9455374,50.2634737 C53.3864247,48.8641482 54.3821187,47.8183607 54.9326195,47.1264245 C55.4830103,46.4189309 55.7582607,45.6808447 55.7582607,44.911957 C55.7582607,44.2199163 55.4749858,43.627902 54.9083262,43.1357053 C54.3416666,42.643613 53.6130886,42.3976191 52.7225921,42.3976191 C51.9616963,42.3976191 51.305998,42.612916 50.7556072,43.0435098 C50.2051065,43.4741036 49.8489518,43.9968929 49.6870334,44.6120866 L47.6470588,43.827746 C47.9708957,42.8589099 48.5941663,42.0438723 49.5169806,41.3826331 C50.4399047,40.7060453 51.5245275,40.3676471 52.7711786,40.3676471 C54.2769212,40.3676471 55.5315968,40.8059673 56.5354252,41.6825035 C57.5391437,42.5590396 58.0410579,43.6355241 58.0410579,44.911957 C58.0410579,46.4343838 57.1586958,48.0798076 55.3939716,49.8483328 L50.5369678,54.4848382 L58.2352941,54.4848382 Z" id="Path" fill="#9902FF" fill-rule="nonzero"></path>
                        </g>
                    </g>
                </g>
                <g id="Group" mask="url(#mask-2)" opacity="0.202864147">
                    <g transform="translate(78.000000, 82.350000)" id="UI-Elements-/logoMark-Copy-6">
                        <g id="Group-101" transform="translate(8.823529, 6.458824)">
                            <path d="M67.3631346,0 L4.9898563,0 C2.23403802,0 0,2.14385558 0,4.78843813 L0,64.6439148 C0,67.2884495 2.23403802,69.4323529 4.9898563,69.4323529 L67.3631346,69.4323529 C70.1189777,69.4323529 72.3529412,67.2884495 72.3529412,64.6439148 L72.3529412,4.78843813 C72.3529412,2.14385558 70.1189777,0 67.3631346,0 Z" id="Path" stroke="#9902FF" stroke-width="6.02523"></path>
                            <path d="M58.2352941,54.4848382 L58.2352941,56.5147059 L47.6470588,56.5147059 L47.6470588,54.3925383 L51.9455374,50.2634737 C53.3864247,48.8641482 54.3821187,47.8183607 54.9326195,47.1264245 C55.4830103,46.4189309 55.7582607,45.6808447 55.7582607,44.911957 C55.7582607,44.2199163 55.4749858,43.627902 54.9083262,43.1357053 C54.3416666,42.643613 53.6130886,42.3976191 52.7225921,42.3976191 C51.9616963,42.3976191 51.305998,42.612916 50.7556072,43.0435098 C50.2051065,43.4741036 49.8489518,43.9968929 49.6870334,44.6120866 L47.6470588,43.827746 C47.9708957,42.8589099 48.5941663,42.0438723 49.5169806,41.3826331 C50.4399047,40.7060453 51.5245275,40.3676471 52.7711786,40.3676471 C54.2769212,40.3676471 55.5315968,40.8059673 56.5354252,41.6825035 C57.5391437,42.5590396 58.0410579,43.6355241 58.0410579,44.911957 C58.0410579,46.4343838 57.1586958,48.0798076 55.3939716,49.8483328 L50.5369678,54.4848382 L58.2352941,54.4848382 Z" id="Path" fill="#9902FF" fill-rule="nonzero"></path>
                        </g>
                    </g>
                </g>
                <g id="Group" mask="url(#mask-2)" opacity="0.202864147">
                    <g transform="translate(374.000000, 77.266667)" id="UI-Elements-/logoMark-Copy-6">
                        <g id="Group-101" transform="translate(8.823529, 6.458824)">
                            <path d="M67.3631346,0 L4.9898563,0 C2.23403802,0 0,2.14385558 0,4.78843813 L0,64.6439148 C0,67.2884495 2.23403802,69.4323529 4.9898563,69.4323529 L67.3631346,69.4323529 C70.1189777,69.4323529 72.3529412,67.2884495 72.3529412,64.6439148 L72.3529412,4.78843813 C72.3529412,2.14385558 70.1189777,0 67.3631346,0 Z" id="Path" stroke="#9902FF" stroke-width="6.02523"></path>
                            <path d="M58.2352941,54.4848382 L58.2352941,56.5147059 L47.6470588,56.5147059 L47.6470588,54.3925383 L51.9455374,50.2634737 C53.3864247,48.8641482 54.3821187,47.8183607 54.9326195,47.1264245 C55.4830103,46.4189309 55.7582607,45.6808447 55.7582607,44.911957 C55.7582607,44.2199163 55.4749858,43.627902 54.9083262,43.1357053 C54.3416666,42.643613 53.6130886,42.3976191 52.7225921,42.3976191 C51.9616963,42.3976191 51.305998,42.612916 50.7556072,43.0435098 C50.2051065,43.4741036 49.8489518,43.9968929 49.6870334,44.6120866 L47.6470588,43.827746 C47.9708957,42.8589099 48.5941663,42.0438723 49.5169806,41.3826331 C50.4399047,40.7060453 51.5245275,40.3676471 52.7711786,40.3676471 C54.2769212,40.3676471 55.5315968,40.8059673 56.5354252,41.6825035 C57.5391437,42.5590396 58.0410579,43.6355241 58.0410579,44.911957 C58.0410579,46.4343838 57.1586958,48.0798076 55.3939716,49.8483328 L50.5369678,54.4848382 L58.2352941,54.4848382 Z" id="Path" fill="#9902FF" fill-rule="nonzero"></path>
                        </g>
                    </g>
                </g>
                <g id="Group" mask="url(#mask-2)" opacity="0.202864147">
                    <g transform="translate(-45.000000, 18.300000)" id="UI-Elements-/logoMark-Copy-6">
                        <g id="Group-101" transform="translate(8.823529, 6.458824)">
                            <path d="M67.3631346,0 L4.9898563,0 C2.23403802,0 0,2.14385558 0,4.78843813 L0,64.6439148 C0,67.2884495 2.23403802,69.4323529 4.9898563,69.4323529 L67.3631346,69.4323529 C70.1189777,69.4323529 72.3529412,67.2884495 72.3529412,64.6439148 L72.3529412,4.78843813 C72.3529412,2.14385558 70.1189777,0 67.3631346,0 Z" id="Path" stroke="#9902FF" stroke-width="6.02523"></path>
                            <path d="M58.2352941,54.4848382 L58.2352941,56.5147059 L47.6470588,56.5147059 L47.6470588,54.3925383 L51.9455374,50.2634737 C53.3864247,48.8641482 54.3821187,47.8183607 54.9326195,47.1264245 C55.4830103,46.4189309 55.7582607,45.6808447 55.7582607,44.911957 C55.7582607,44.2199163 55.4749858,43.627902 54.9083262,43.1357053 C54.3416666,42.643613 53.6130886,42.3976191 52.7225921,42.3976191 C51.9616963,42.3976191 51.305998,42.612916 50.7556072,43.0435098 C50.2051065,43.4741036 49.8489518,43.9968929 49.6870334,44.6120866 L47.6470588,43.827746 C47.9708957,42.8589099 48.5941663,42.0438723 49.5169806,41.3826331 C50.4399047,40.7060453 51.5245275,40.3676471 52.7711786,40.3676471 C54.2769212,40.3676471 55.5315968,40.8059673 56.5354252,41.6825035 C57.5391437,42.5590396 58.0410579,43.6355241 58.0410579,44.911957 C58.0410579,46.4343838 57.1586958,48.0798076 55.3939716,49.8483328 L50.5369678,54.4848382 L58.2352941,54.4848382 Z" id="Path" fill="#9902FF" fill-rule="nonzero"></path>
                        </g>
                    </g>
                </g>
                <g id="Group" mask="url(#mask-2)" opacity="0.202864147">
                    <g transform="translate(81.000000, -46.766667)" id="UI-Elements-/logoMark-Copy-6">
                        <g id="Group-101" transform="translate(8.823529, 6.458824)">
                            <path d="M67.3631346,0 L4.9898563,0 C2.23403802,0 0,2.14385558 0,4.78843813 L0,64.6439148 C0,67.2884495 2.23403802,69.4323529 4.9898563,69.4323529 L67.3631346,69.4323529 C70.1189777,69.4323529 72.3529412,67.2884495 72.3529412,64.6439148 L72.3529412,4.78843813 C72.3529412,2.14385558 70.1189777,0 67.3631346,0 Z" id="Path" stroke="#9902FF" stroke-width="6.02523"></path>
                            <path d="M58.2352941,54.4848382 L58.2352941,56.5147059 L47.6470588,56.5147059 L47.6470588,54.3925383 L51.9455374,50.2634737 C53.3864247,48.8641482 54.3821187,47.8183607 54.9326195,47.1264245 C55.4830103,46.4189309 55.7582607,45.6808447 55.7582607,44.911957 C55.7582607,44.2199163 55.4749858,43.627902 54.9083262,43.1357053 C54.3416666,42.643613 53.6130886,42.3976191 52.7225921,42.3976191 C51.9616963,42.3976191 51.305998,42.612916 50.7556072,43.0435098 C50.2051065,43.4741036 49.8489518,43.9968929 49.6870334,44.6120866 L47.6470588,43.827746 C47.9708957,42.8589099 48.5941663,42.0438723 49.5169806,41.3826331 C50.4399047,40.7060453 51.5245275,40.3676471 52.7711786,40.3676471 C54.2769212,40.3676471 55.5315968,40.8059673 56.5354252,41.6825035 C57.5391437,42.5590396 58.0410579,43.6355241 58.0410579,44.911957 C58.0410579,46.4343838 57.1586958,48.0798076 55.3939716,49.8483328 L50.5369678,54.4848382 L58.2352941,54.4848382 Z" id="Path" fill="#9902FF" fill-rule="nonzero"></path>
                        </g>
                    </g>
                </g>
                <g id="Group" mask="url(#mask-2)" opacity="0.202864147">
                    <g transform="translate(394.000000, -46.766667)" id="UI-Elements-/logoMark-Copy-6">
                        <g id="Group-101" transform="translate(8.823529, 6.458824)">
                            <path d="M67.3631346,0 L4.9898563,0 C2.23403802,0 0,2.14385558 0,4.78843813 L0,64.6439148 C0,67.2884495 2.23403802,69.4323529 4.9898563,69.4323529 L67.3631346,69.4323529 C70.1189777,69.4323529 72.3529412,67.2884495 72.3529412,64.6439148 L72.3529412,4.78843813 C72.3529412,2.14385558 70.1189777,0 67.3631346,0 Z" id="Path" stroke="#9902FF" stroke-width="6.02523"></path>
                            <path d="M58.2352941,54.4848382 L58.2352941,56.5147059 L47.6470588,56.5147059 L47.6470588,54.3925383 L51.9455374,50.2634737 C53.3864247,48.8641482 54.3821187,47.8183607 54.9326195,47.1264245 C55.4830103,46.4189309 55.7582607,45.6808447 55.7582607,44.911957 C55.7582607,44.2199163 55.4749858,43.627902 54.9083262,43.1357053 C54.3416666,42.643613 53.6130886,42.3976191 52.7225921,42.3976191 C51.9616963,42.3976191 51.305998,42.612916 50.7556072,43.0435098 C50.2051065,43.4741036 49.8489518,43.9968929 49.6870334,44.6120866 L47.6470588,43.827746 C47.9708957,42.8589099 48.5941663,42.0438723 49.5169806,41.3826331 C50.4399047,40.7060453 51.5245275,40.3676471 52.7711786,40.3676471 C54.2769212,40.3676471 55.5315968,40.8059673 56.5354252,41.6825035 C57.5391437,42.5590396 58.0410579,43.6355241 58.0410579,44.911957 C58.0410579,46.4343838 57.1586958,48.0798076 55.3939716,49.8483328 L50.5369678,54.4848382 L58.2352941,54.4848382 Z" id="Path" fill="#9902FF" fill-rule="nonzero"></path>
                        </g>
                    </g>
                </g>
            </g>
            <g id="Group" transform="translate(168.000000, 35.000000)">
                <g id="White-logo" transform="translate(3.644444, 5.466667)">
                    <path d="M37.3241379,0 L2.76475096,0 C1.23782168,0 0,1.23781727 0,2.76474828 L0,37.3241251 C0,38.8510173 1.23782168,40.0888889 2.76475096,40.0888889 L37.3241379,40.0888889 C38.8511059,40.0888889 40.0888889,38.8510173 40.0888889,37.3241251 L40.0888889,2.76474828 C40.0888889,1.23781727 38.8511059,0 37.3241379,0 Z" id="Path" stroke="#9902FF" stroke-width="4"></path>
                    <path d="M32.8,31.4255474 L32.8,32.8 L26.4222222,32.8 L26.4222222,31.3631012 L29.0113552,28.5672422 C29.8793104,27.6196644 30.4790291,26.9116227 30.8105857,26.4430376 C31.1421424,25.9640449 31.3079951,25.4642367 31.3079951,24.9436131 C31.3079951,24.4750281 31.1373059,24.0741329 30.796002,23.7409274 C30.4546981,23.407722 30.0158468,23.2411192 29.4794483,23.2411192 C29.0211025,23.2411192 28.6261513,23.3869066 28.2945946,23.6784812 C27.963038,23.9700558 27.7485232,24.3240767 27.6509759,24.7406232 L26.4222222,24.2095125 C26.6172424,23.5535093 26.9926991,23.0016626 27.5485922,22.553893 C28.1044109,22.0957156 28.7578513,21.8666667 29.5086902,21.8666667 C30.4156345,21.8666667 31.1714586,22.1634054 31.7760882,22.7569624 C32.3807178,23.3505193 32.6829581,24.0793764 32.6829581,24.9436131 C32.6829581,25.9744526 32.1515448,27.0886331 31.0885695,28.2860753 L28.162969,31.4255474 L32.8,31.4255474 Z" id="Path" fill="#9902FF" fill-rule="nonzero"></path>
                    <path d="M66.5111111,33.1335656 L66.5111111,7.28888889 L75.8791963,7.28888889 C77.9287665,7.28888889 79.6895443,7.96267905 81.1607512,9.31025938 C82.6311797,10.6337591 83.3667832,12.3061943 83.3667832,14.3275647 C83.3667832,16.8783973 82.1976018,18.6711576 79.8584607,19.7058458 L79.8584607,19.8502516 C81.1848821,20.2833913 82.2458636,21.0414635 83.0414051,22.1243128 C83.8369466,23.1830815 84.2347174,24.398374 84.2347174,25.7699573 C84.2347174,27.8875724 83.4633068,29.6442895 81.9197072,31.0399534 C80.4251478,32.4356948 78.580301,33.1335656 76.3859453,33.1335656 L66.5111111,33.1335656 Z M69.838841,10.4653504 L69.838841,18.3703057 L75.8791963,18.3703057 C77.0608323,18.3703057 78.049421,17.9732869 78.845741,17.1791715 C79.6412825,16.3609755 80.0390532,15.4345723 80.0390532,14.3998065 C80.0390532,13.3891212 79.6529587,12.4746806 78.8815481,11.6564847 C78.1101375,10.8623693 77.1573559,10.4653504 76.0239817,10.4653504 L69.838841,10.4653504 Z M69.838841,21.4746032 L69.838841,29.957104 L76.5307307,29.957104 C77.7364977,29.957104 78.7608936,29.5360046 79.6046969,28.6937281 C80.4251478,27.8515292 80.8345948,26.8528842 80.8345948,25.6977932 C80.8345948,24.5667827 80.4126931,23.5801781 79.5688898,22.7379015 C78.7250864,21.8957026 77.664105,21.4746032 76.3859453,21.4746032 L69.838841,21.4746032 Z M89.8323094,27.7191637 C89.8323094,28.5854431 90.194273,29.3073945 90.9174218,29.88494 C91.6654799,30.4624855 92.5334141,30.7512194 93.5220029,30.7512194 C94.9208171,30.7512194 96.1623912,30.2338754 97.2475036,29.1991095 C98.3567469,28.1643437 98.9117578,26.9491289 98.9117578,25.5533874 C97.8749072,24.7352691 96.4278312,24.3261323 94.5713082,24.3261323 C93.2207558,24.3261323 92.0873816,24.6509871 91.1711855,25.3007743 C90.278342,25.9504839 89.8323094,26.7566396 89.8323094,27.7191637 Z M94.1369518,14.8690671 C96.5967475,14.8690671 98.5381179,15.530817 99.9602846,16.8543167 C101.38323,18.1537359 102.094702,19.9464962 102.094702,22.2325977 L102.094702,33.1335656 L98.9117578,33.1335656 L98.9117578,30.6790554 L98.7669723,30.6790554 C97.392289,32.7004259 95.5598969,33.7111111 93.2690176,33.7111111 C91.3151926,33.7111111 89.6758477,33.1335656 88.3494262,31.9784745 C87.0471357,30.8233835 86.3963796,29.3795585 86.3963796,27.6469996 C86.3963796,25.8181184 87.0837213,24.3622532 88.4576261,23.2794038 C89.8564403,22.1964769 91.7137417,21.6550522 94.028752,21.6550522 C96.0059295,21.6550522 97.6335981,22.0160279 98.9117578,22.7379015 L98.9117578,21.979907 C98.9117578,20.824816 98.4532705,19.8502516 97.5370745,19.0561362 C96.6208784,18.2380179 95.5474423,17.8288811 94.3175444,17.8288811 C92.4610214,17.8288811 90.9898145,18.6109562 89.9047021,20.1751064 L86.974743,18.3342625 C88.5907353,16.0240804 90.9781383,14.8690671 94.1369518,14.8690671 Z M119.23543,28.2244675 C119.23543,29.7646148 118.560543,31.0640339 117.209991,32.1228803 C115.859439,33.1816491 114.159377,33.7111111 112.109807,33.7111111 C110.325677,33.7111111 108.757946,33.2538908 107.407394,32.3394502 C106.056841,31.400929 105.092384,30.1736739 104.51402,28.6576849 L107.479787,27.3943089 C107.914143,28.4530776 108.540768,29.2833139 109.36044,29.88494 C110.205022,30.4624855 111.121218,30.7512194 112.109807,30.7512194 C113.170789,30.7512194 114.051177,30.5226093 114.750195,30.065389 C115.474123,29.6081687 115.835308,29.066744 115.835308,28.441115 C115.835308,27.3101045 114.967373,26.4798683 113.231505,25.9504839 L110.192568,25.1924117 C106.744183,24.3261323 105.019991,22.6657375 105.019991,20.2112272 C105.019991,18.5989159 105.671525,17.311537 106.973816,16.3489352 C108.299459,15.3623306 109.987844,14.8690671 112.037414,14.8690671 C113.605145,14.8690671 115.015635,15.2420054 116.269664,15.9880373 C117.547824,16.7339915 118.439889,17.7326364 118.945859,18.9839721 L115.980093,20.2112272 C115.64226,19.465273 115.088028,18.8877275 114.316617,18.4785907 C113.568559,18.0454509 112.724756,17.8288811 111.784429,17.8288811 C110.916495,17.8288811 110.132629,18.0454509 109.432833,18.4785907 C108.757946,18.9118081 108.420114,19.4411924 108.420114,20.0668214 C108.420114,21.0775067 109.372895,21.799458 111.27768,22.2325977 L113.954654,22.9184282 C117.475431,23.7847076 119.23543,25.5533874 119.23543,28.2244675 Z M130.266368,33.7111111 C127.661787,33.7111111 125.515693,32.8206734 123.828087,31.0399534 C122.139702,29.2592333 121.295898,27.0092527 121.295898,24.2900891 C121.295898,21.5949284 122.115571,19.3569881 123.755694,17.5761904 C125.395039,15.7713897 127.492871,14.8690671 130.04919,14.8690671 C132.677902,14.8690671 134.764058,15.7233062 136.306879,17.4318622 C137.87461,19.1163376 138.658475,21.4866435 138.658475,24.5427021 L138.62189,24.9036778 L124.696021,24.9036778 C124.744283,26.6363144 125.322646,28.0319782 126.43189,29.0908246 C127.541133,30.1495933 128.867554,30.6790554 130.411154,30.6790554 C132.533117,30.6790554 134.197371,29.620209 135.40236,27.5025938 L138.368904,28.9464188 C137.573363,30.4384049 136.46412,31.6054586 135.041174,32.4477351 C133.64236,33.289934 132.050499,33.7111111 130.266368,33.7111111 Z M124.949006,22.1604337 L135.113567,22.1604337 C135.017044,20.9331009 134.510294,19.9224156 133.594098,19.1283779 C132.702033,18.310182 131.496266,17.9011228 129.976798,17.9011228 C128.722769,17.9011228 127.637656,18.2861014 126.72146,19.0561362 C125.829395,19.826171 125.238577,20.8609368 124.949006,22.1604337 Z M148.188627,33.4222995 C146.741551,33.4222995 145.535784,32.9771195 144.571326,32.0867595 C143.630999,31.1963994 143.149159,29.957104 143.125028,28.3688733 L143.125028,18.4785907 L140.013698,18.4785907 L140.013698,15.4465349 L143.125028,15.4465349 L143.125028,10.0322107 L146.452758,10.0322107 L146.452758,15.4465349 L150.793208,15.4465349 L150.793208,18.4785907 L146.452758,18.4785907 L146.452758,27.286024 C146.452758,28.4651179 146.681613,29.2712736 147.1401,29.7044133 C147.597809,30.1135501 148.116234,30.3180797 148.695376,30.3180797 C148.960037,30.3180797 149.213801,30.2939991 149.454332,30.245838 C149.719772,30.1736739 149.961081,30.0894696 150.178259,29.9932249 L151.226786,32.9530389 C150.358851,33.2659311 149.346132,33.4222995 148.188627,33.4222995 Z M179.591499,15.4465349 L173.876366,33.1335656 L170.476244,33.1335656 L166.063401,19.5615177 L161.686366,33.1335656 L158.322829,33.1335656 L152.607696,15.4465349 L156.080212,15.4465349 L160.02289,28.802013 L160.058698,28.802013 L164.435733,15.4465349 L167.871663,15.4465349 L172.248698,28.802013 L172.284505,28.802013 L176.191377,15.4465349 L179.591499,15.4465349 Z M180.39249,24.2900891 C180.39249,21.5708479 181.247969,19.3208672 182.960485,17.5401472 C184.696354,15.7594271 186.879033,14.8690671 189.507745,14.8690671 C192.135679,14.8690671 194.305904,15.7594271 196.01842,17.5401472 C197.754288,19.3208672 198.622222,21.5708479 198.622222,24.2900891 C198.622222,27.0333332 197.754288,29.2833139 196.01842,31.0399534 C194.305904,32.8206734 192.135679,33.7111111 189.507745,33.7111111 C186.879033,33.7111111 184.696354,32.8206734 182.960485,31.0399534 C181.247969,29.2592333 180.39249,27.0092527 180.39249,24.2900891 Z M183.72022,24.2900891 C183.72022,26.1911344 184.274452,27.731204 185.383695,28.9102979 C186.492939,30.0894696 187.867622,30.6790554 189.507745,30.6790554 C191.14709,30.6790554 192.521773,30.0894696 193.631017,28.9102979 C194.74026,27.731204 195.294492,26.1911344 195.294492,24.2900891 C195.294492,22.4130467 194.74026,20.8850174 193.631017,19.7058458 C192.497642,18.5026712 191.122959,17.9011228 189.507745,17.9011228 C187.891753,17.9011228 186.517069,18.5026712 185.383695,19.7058458 C184.274452,20.8850174 183.72022,22.4130467 183.72022,24.2900891 Z" id="Shape" fill="#FFFFFF" fill-rule="nonzero"></path>
                </g>
            </g>
        </g>
    </g>
</svg>